<?xml version="1.0" encoding="UTF-8"?>
<!DOCTYPE svg PUBLIC "-//W3C//DTD SVG 1.1//EN" "http://www.w3.org/Graphics/SVG/1.1/DTD/svg11.dtd">
<svg xmlns="http://www.w3.org/2000/svg" version="1.1" width="384px" height="384px" style="shape-rendering:geometricPrecision; text-rendering:geometricPrecision; image-rendering:optimizeQuality; fill-rule:evenodd; clip-rule:evenodd" xmlns:xlink="http://www.w3.org/1999/xlink">
<g><path style="opacity:1" fill="#14370d" d="M -0.5,-0.5 C 127.5,-0.5 255.5,-0.5 383.5,-0.5C 383.5,127.5 383.5,255.5 383.5,383.5C 255.5,383.5 127.5,383.5 -0.5,383.5C -0.5,255.5 -0.5,127.5 -0.5,-0.5 Z"/></g>
<g><path style="opacity:1" fill="#010801" d="M 189.5,50.5 C 217.786,61.6376 246.119,72.8042 274.5,84C 292.903,91.3506 311.903,96.3506 331.5,99C 332.647,106.42 332.813,113.92 332,121.5C 238.57,122.665 145.07,122.832 51.5,122C 50.1667,114.333 50.1667,106.667 51.5,99C 69.9667,96.2165 87.9667,91.5498 105.5,85C 134.043,74.5486 162.043,63.0486 189.5,50.5 Z"/></g>
<g><path style="opacity:1" fill="#155308" d="M 190.5,53.5 C 222.708,67.4046 255.375,80.2379 288.5,92C 297.747,94.9172 307.08,97.5839 316.5,100C 320.77,101.075 325.103,101.575 329.5,101.5C 329.5,107.5 329.5,113.5 329.5,119.5C 237.5,119.5 145.5,119.5 53.5,119.5C 53.5,113.5 53.5,107.5 53.5,101.5C 60.5629,100.819 67.5629,99.6524 74.5,98C 114.144,85.4018 152.81,70.5684 190.5,53.5 Z"/></g>
<g><path style="opacity:1" fill="#010601" d="M 188.5,77.5 C 201.459,78.2655 205.626,84.5988 201,96.5C 192.322,103.998 185.322,102.665 180,92.5C 178.825,85.1856 181.658,80.1856 188.5,77.5 Z"/></g>
<g><path style="opacity:1" fill="#010601" d="M 63.5,128.5 C 148.834,128.333 234.167,128.5 319.5,129C 320.651,138.422 320.818,147.922 320,157.5C 315.599,158.467 311.099,158.8 306.5,158.5C 306.608,162.247 306.108,165.914 305,169.5C 303.644,170.38 302.144,170.714 300.5,170.5C 300.5,202.517 301.167,234.517 302.5,266.5C 308.425,266.192 314.259,266.525 320,267.5C 320.818,277.078 320.651,286.578 319.5,296C 234.167,296.667 148.833,296.667 63.5,296C 62.3534,288.58 62.1868,281.08 63,273.5C 68.7412,272.525 74.5746,272.192 80.5,272.5C 81.4332,238.506 82.0999,204.506 82.5,170.5C 80.8561,170.714 79.3561,170.38 78,169.5C 77.2811,165.855 76.7811,162.188 76.5,158.5C 71.9014,158.8 67.4014,158.467 63,157.5C 62.1943,147.756 62.361,138.089 63.5,128.5 Z"/></g>
<g><path style="opacity:1" fill="#155308" d="M 298.5,246.5 C 298.5,254.5 298.5,262.5 298.5,270.5C 302.702,270.817 306.702,270.483 310.5,269.5C 312.833,269.5 315.167,269.5 317.5,269.5C 317.5,277.5 317.5,285.5 317.5,293.5C 233.5,293.5 149.5,293.5 65.5,293.5C 65.5,287.5 65.5,281.5 65.5,275.5C 71.5,275.5 77.5,275.5 83.5,275.5C 84.2619,239.502 84.9285,203.502 85.5,167.5C 83.8333,167.5 82.1667,167.5 80.5,167.5C 80.3145,163.552 79.6478,159.719 78.5,156C 74.1794,155.501 69.8461,155.334 65.5,155.5C 65.5,147.5 65.5,139.5 65.5,131.5C 149.5,131.5 233.5,131.5 317.5,131.5C 317.5,139.5 317.5,147.5 317.5,155.5C 313.154,155.334 308.821,155.501 304.5,156C 303.352,159.719 302.686,163.552 302.5,167.5C 300.833,167.5 299.167,167.5 297.5,167.5C 297.754,193.835 298.087,220.168 298.5,246.5 Z"/></g>
<g><path style="opacity:1" fill="#010501" d="M 112.5,155.5 C 117.179,155.334 121.845,155.501 126.5,156C 127.648,159.719 128.314,163.552 128.5,167.5C 130.167,167.5 131.833,167.5 133.5,167.5C 132.948,203.169 132.281,238.836 131.5,274.5C 123.5,274.5 115.5,274.5 107.5,274.5C 106.64,238.837 105.974,203.171 105.5,167.5C 107.167,167.5 108.833,167.5 110.5,167.5C 110.74,163.394 111.407,159.394 112.5,155.5 Z"/></g>
<g><path style="opacity:1" fill="#010501" d="M 160.5,155.5 C 165.179,155.334 169.845,155.501 174.5,156C 175.648,159.719 176.314,163.552 176.5,167.5C 178.167,167.5 179.833,167.5 181.5,167.5C 181.013,202.504 180.347,237.504 179.5,272.5C 171.5,272.5 163.5,272.5 155.5,272.5C 154.64,237.504 153.974,202.504 153.5,167.5C 155.167,167.5 156.833,167.5 158.5,167.5C 158.74,163.394 159.407,159.394 160.5,155.5 Z"/></g>
<g><path style="opacity:1" fill="#010501" d="M 208.5,155.5 C 213.179,155.334 217.845,155.501 222.5,156C 223.648,159.719 224.314,163.552 224.5,167.5C 226.167,167.5 227.833,167.5 229.5,167.5C 229.009,202.17 228.342,236.837 227.5,271.5C 219.5,271.5 211.5,271.5 203.5,271.5C 202.623,236.838 201.956,202.171 201.5,167.5C 203.167,167.5 204.833,167.5 206.5,167.5C 206.74,163.394 207.407,159.394 208.5,155.5 Z"/></g>
<g><path style="opacity:1" fill="#010501" d="M 256.5,155.5 C 261.179,155.334 265.845,155.501 270.5,156C 271.648,159.719 272.314,163.552 272.5,167.5C 274.167,167.5 275.833,167.5 277.5,167.5C 277.189,201.842 276.522,236.175 275.5,270.5C 267.5,270.5 259.5,270.5 251.5,270.5C 250.761,236.168 250.095,201.835 249.5,167.5C 251.167,167.5 252.833,167.5 254.5,167.5C 254.74,163.394 255.407,159.394 256.5,155.5 Z"/></g>
<g><path style="opacity:1" fill="#0d3205" d="M 298.5,246.5 C 299.492,253.982 299.825,261.648 299.5,269.5C 303.167,269.5 306.833,269.5 310.5,269.5C 306.702,270.483 302.702,270.817 298.5,270.5C 298.5,262.5 298.5,254.5 298.5,246.5 Z"/></g>
<g><path style="opacity:1" fill="#010701" d="M 45.5,302.5 C 142.836,304.5 240.169,306.667 337.5,309C 338.647,316.42 338.813,323.92 338,331.5C 240.57,332.665 143.07,332.832 45.5,332C 44.1786,322.167 44.1786,312.333 45.5,302.5 Z"/></g>
<g><path style="opacity:1" fill="#155308" d="M 47.5,305.5 C 143.507,307.195 239.507,309.195 335.5,311.5C 335.5,317.5 335.5,323.5 335.5,329.5C 239.5,329.5 143.5,329.5 47.5,329.5C 47.5,321.5 47.5,313.5 47.5,305.5 Z"/></g>
</svg>
